<svg xmlns="http://www.w3.org/2000/svg" fill="none" viewBox="0 0 24 24" id="Balance--Streamline-Sharp-Material" height="24" width="24">
  <desc>
    Balance Streamline Icon: https://streamlinehq.com
  </desc>
  <path fill="#000000" d="M2 21v-1.5h9.25V7.4c-0.43335 -0.15 -0.82085 -0.39585 -1.1625 -0.7375C9.74585 6.32085 9.5 5.93335 9.35 5.5h-3.975L8.5 13.05c-0.01665 0.75 -0.3375 1.3875 -0.9625 1.9125 -0.625 0.525 -1.3875 0.7875 -2.2875 0.7875 -0.9 0 -1.6625 -0.2625 -2.2875 -0.7875C2.3375 14.4375 2.016665 13.8 2 13.05L5.125 5.5H3V4h6.35c0.2 -0.583335 0.54165 -1.0625 1.025 -1.4375C10.85835 2.1875 11.4 2 12 2c0.6 0 1.14165 0.1875 1.625 0.5625 0.48335 0.375 0.825 0.854165 1.025 1.4375H21v1.5h-2.125L22 13.05c-0.01665 0.75 -0.3375 1.3875 -0.9625 1.9125 -0.625 0.525 -1.3875 0.7875 -2.2875 0.7875 -0.9 0 -1.6625 -0.2625 -2.2875 -0.7875 -0.625 -0.525 -0.94585 -1.1625 -0.9625 -1.9125L18.625 5.5H14.65c-0.15 0.43335 -0.39585 0.82085 -0.7375 1.1625 -0.34165 0.34165 -0.72915 0.5875 -1.1625 0.7375V19.5H22v1.5H2Zm14.875 -8h3.75l-1.875 -4.6 -1.875 4.6Zm-13.5 0h3.75l-1.875 -4.6L3.375 13ZM12 6c0.35 0 0.64585 -0.125 0.8875 -0.375 0.24165 -0.25 0.3625 -0.54165 0.3625 -0.875 0 -0.35 -0.12085 -0.645835 -0.3625 -0.8875C12.64585 3.620835 12.35 3.5 12 3.5c-0.33335 0 -0.625 0.120835 -0.875 0.3625S10.75 4.4 10.75 4.75c0 0.33335 0.125 0.625 0.375 0.875S11.66665 6 12 6Z" stroke-width="0.5"></path>
</svg>