<svg id="Muscle-Arm-Fitness--Streamline-Atlas" xmlns="http://www.w3.org/2000/svg" viewBox="-0.5 -0.5 16 16" height="16" width="16">
  <desc>
    Muscle Arm Fitness Streamline Icon: https://streamlinehq.com
  </desc>
  <defs></defs>
  <path d="M0.3125 14.075a7.28125 7.28125 0 0 0 2.9875000000000003 -0.59375 13.125 13.125 0 0 0 3.5875000000000004 0.59375c1.7937500000000002 0 6.574999999999999 -0.59375 6.574999999999999 -0.59375l0.625 -0.625v-3.5625c0 -2.9875000000000003 -1.7937500000000002 -8.36875 -1.7937500000000002 -8.36875h-3.0125l-1.2 1.1937499999999999V3.3125l1.2 1.2h1.1937499999999999" fill="none" stroke="#000000" stroke-miterlimit="10" stroke-width="1"></path>
  <path d="M10.475000000000001 2.71875v2.3874999999999997a16.50625 16.50625 0 0 0 -0.625 4.7875A3.2 3.2 0 0 0 6.875 6.875a4.55625 4.55625 0 0 0 -2.9749999999999996 1.25A5.21875 5.21875 0 0 0 0.3125 6.875" fill="none" stroke="#000000" stroke-miterlimit="10" stroke-width="1"></path>
</svg>